<!--?xml version="1.0" standalone="no"?-->
              <svg id="sw-js-blob-svg" viewBox="0 0 100 100" xmlns="http://www.w3.org/2000/svg" version="1.1">
                    <defs> 
                        <linearGradient id="sw-gradient" x1="0" x2="1" y1="1" y2="0">
                            <stop id="stop1" stop-color="rgba(77.005, 24.444, 216.793, 0.18)" offset="0%"></stop>
                            <stop id="stop2" stop-color="rgba(31, 165.909, 251, 0.03)" offset="100%"></stop>
                        </linearGradient>
                    </defs>
                <path fill="url(#sw-gradient)" d="M18,-33.7C22.1,-28.8,23.3,-21.5,27.7,-15.5C32.2,-9.4,39.8,-4.7,40.6,0.5C41.4,5.6,35.3,11.3,31.4,18.2C27.5,25.1,25.7,33.3,20.8,38.5C16,43.8,8,46.1,0.6,45.1C-6.8,44,-13.6,39.7,-20.1,35.4C-26.6,31.1,-32.7,26.7,-35.5,20.8C-38.2,14.9,-37.7,7.5,-34.3,1.9C-31,-3.6,-24.9,-7.3,-21,-11.2C-17.1,-15.1,-15.3,-19.3,-12.2,-24.7C-9.1,-30.1,-4.5,-36.7,1.2,-38.8C7,-40.9,13.9,-38.5,18,-33.7Z" width="100%" height="100%" transform="translate(50 50)" stroke-width="0" style="transition: 0.3s;" stroke="url(#sw-gradient)"></path>
              </svg>